<?xml version="1.0" standalone="no"?>
<!DOCTYPE svg PUBLIC "-//W3C//DTD SVG 20010904//EN"
 "http://www.w3.org/TR/2001/REC-SVG-20010904/DTD/svg10.dtd">
<svg version="1.0" xmlns="http://www.w3.org/2000/svg"
 width="151.000000pt" height="135.000000pt" viewBox="0 0 151.000000 135.000000"
 preserveAspectRatio="xMidYMid meet">

<g transform="translate(0.000000,135.000000) scale(0.100000,-0.100000)"
fill="#000000" stroke="none">
<path d="M4 1173 c8 -217 10 -433 5 -452 -2 -7 1 -15 7 -18 24 -9 25 38 9 442
-2 55 -4 124 -4 153 -1 32 -5 52 -12 52 -9 0 -10 -48 -5 -177z"/>
<path d="M206 1334 c-10 -25 -7 -34 9 -34 9 0 15 9 15 25 0 28 -15 34 -24 9z"/>
<path d="M342 1124 c6 -264 0 -336 -28 -364 -42 -41 -43 -35 -48 175 -5 207
-7 229 -20 242 -4 4 -4 -62 0 -147 11 -189 11 -227 0 -309 -8 -57 -7 -64 7
-58 12 4 21 -3 33 -28 9 -19 22 -39 30 -46 18 -15 18 -35 -1 -43 -10 -4 -15
-20 -15 -50 0 -56 -7 -59 -143 -56 -159 3 -157 4 -157 -25 0 -25 1 -25 85 -25
47 0 85 -3 85 -7 -1 -13 -115 -83 -134 -83 -12 0 -16 -5 -13 -14 3 -8 -1 -20
-9 -26 -11 -10 -14 -41 -14 -136 l0 -124 505 0 505 0 0 80 c0 103 -18 105 -22
3 l-3 -78 -38 52 c-31 42 -63 110 -54 114 1 0 90 3 198 5 181 4 196 3 196 -14
-1 -89 5 -142 14 -142 8 0 10 25 6 79 -5 94 -9 91 121 91 l82 0 0 30 c0 20 -5
30 -15 30 -8 0 -15 5 -15 10 0 6 7 10 15 10 11 0 15 12 15 45 0 43 -1 44 -35
51 -46 8 -65 -8 -65 -57 0 -30 4 -39 22 -45 l23 -7 -23 -8 c-17 -7 -288 -15
-327 -10 -5 0 9 13 32 27 22 15 54 49 69 75 32 53 17 49 169 54 138 4 135 3
135 29 0 20 -6 24 -45 30 -25 3 -86 3 -135 -1 -99 -7 -96 -9 -80 60 5 23 12
71 15 107 5 52 11 69 27 79 36 23 43 -8 23 -112 -9 -44 10 -53 22 -9 9 32 9
88 -2 284 l-8 146 -36 0 c-20 0 -49 -7 -64 -15 -16 -8 -30 -13 -32 -11 -2 2
-7 85 -11 186 -5 126 -10 182 -18 182 -8 0 -11 -21 -9 -62 10 -248 10 -258 -2
-258 -14 0 -39 28 -49 55 -5 14 -9 16 -15 7 -5 -9 -17 -11 -34 -6 -25 6 -27
10 -27 60 0 54 -6 64 -28 42 -8 -8 -14 -5 -21 14 -13 35 -49 59 -78 52 -22 -6
-23 -4 -23 46 0 35 -4 50 -12 48 -8 -3 -11 -24 -9 -60 3 -74 -12 -98 -61 -98
-20 0 -40 -4 -43 -10 -3 -5 -13 -10 -21 -10 -11 0 -14 18 -14 90 l0 90 -30 0
-30 0 0 -95 c0 -69 -3 -95 -12 -95 -10 0 -13 25 -13 92 0 57 -4 93 -11 95 -7
2 -11 -24 -11 -80 0 -91 -5 -107 -33 -107 -10 0 -22 -4 -25 -10 -3 -5 3 -10
15 -10 12 0 18 -4 15 -10 -3 -5 -19 -10 -36 -10 -28 0 -29 1 -30 53 -1 28 0
80 1 115 l2 62 -30 0 -30 0 1 -102 c1 -184 -1 -195 -38 -212 -36 -17 -54 -20
-56 -8 -6 35 -8 74 -10 185 0 73 -5 130 -11 133 -7 5 -9 -70 -6 -222z m619 13
c34 -129 48 -162 67 -160 11 1 40 -19 70 -47 57 -54 83 -63 79 -28 -3 31 68
72 83 48 15 -23 12 -79 -9 -155 -11 -39 -21 -83 -23 -100 -3 -29 -5 -30 -49
-27 -68 5 -91 -18 -97 -96 -5 -72 19 -122 68 -142 38 -16 39 -42 4 -87 -47
-61 -93 -84 -185 -90 l-82 -6 6 26 c6 22 1 28 -36 50 -23 14 -70 55 -105 91
-35 35 -83 74 -107 86 -42 20 -43 23 -50 79 -13 111 27 227 114 336 22 28 61
89 86 136 25 47 62 105 82 129 l37 43 18 -23 c10 -12 23 -41 29 -63z m-164 17
c-3 -3 -12 -4 -19 -1 -8 3 -5 6 6 6 11 1 17 -2 13 -5z m-107 -134 c0 -5 -12
-12 -27 -16 -16 -3 -38 -10 -51 -15 -32 -13 -39 -11 -39 6 0 9 6 14 12 11 7
-2 30 2 51 9 47 17 54 18 54 5z m-233 -122 c-3 -8 -6 -5 -6 6 -1 11 2 17 5 13
3 -3 4 -12 1 -19z m163 12 c-19 -13 -30 -13 -30 0 0 6 10 10 23 10 18 0 19 -2
7 -10z m-80 -79 c0 -5 9 -11 20 -14 17 -4 18 -8 7 -31 -7 -14 -18 -24 -24 -21
-16 6 -17 -7 -2 -22 7 -7 9 -19 5 -29 -6 -16 -8 -16 -26 1 -22 20 -27 74 -10
106 11 19 30 26 30 10z m12 -243 c6 -51 5 -52 -21 -43 -24 7 -26 23 -9 60 16
36 25 31 30 -17z m614 4 c19 -12 35 -52 29 -71 -6 -21 -45 -34 -69 -25 -22 8
-31 50 -17 80 10 24 35 31 57 16z m298 -258 c23 -9 20 -34 -4 -34 -13 0 -20 7
-20 20 0 22 1 23 24 14z m-584 -174 c0 -5 -2 -10 -4 -10 -3 0 -8 5 -11 10 -3
6 -1 10 4 10 6 0 11 -4 11 -10z"/>
<path d="M885 1070 c-3 -5 -1 -10 4 -10 6 0 11 5 11 10 0 6 -2 10 -4 10 -3 0
-8 -4 -11 -10z"/>
<path d="M830 840 c-19 -10 -45 -24 -56 -31 -43 -23 -57 -98 -28 -148 58 -98
216 -107 262 -14 22 44 28 116 13 155 -21 56 -122 76 -191 38z m108 -92 c30
-25 1 -98 -38 -98 -23 0 -70 38 -70 56 0 8 11 26 25 40 26 25 52 26 83 2z"/>
<path d="M872 708 c5 -15 28 -18 29 -3 0 6 -7 12 -17 13 -10 3 -15 -1 -12 -10z"/>
<path d="M785 543 c14 -13 94 -37 101 -30 9 8 -26 24 -71 32 -25 5 -36 4 -30
-2z"/>
<path d="M1002 488 c2 -26 8 -34 26 -36 13 -2 30 2 38 9 13 11 11 15 -13 35
-40 33 -55 31 -51 -8z"/>
<path d="M786 481 c-7 -10 63 -23 77 -14 13 8 -18 21 -50 22 -12 1 -24 -3 -27
-8z"/>
<path d="M1115 391 c-7 -12 12 -24 25 -16 11 7 4 25 -10 25 -5 0 -11 -4 -15
-9z"/>
<path d="M1070 373 c0 -5 4 -15 10 -23 11 -18 25 -7 17 15 -6 15 -27 21 -27 8z"/>
<path d="M1125 551 c-7 -12 12 -24 25 -16 11 7 4 25 -10 25 -5 0 -11 -4 -15
-9z"/>
<path d="M790 1324 c0 -14 4 -23 10 -19 6 3 10 15 10 26 0 10 -4 19 -10 19 -5
0 -10 -12 -10 -26z"/>
<path d="M970 1340 c0 -5 5 -10 10 -10 6 0 10 5 10 10 0 6 -4 10 -10 10 -5 0
-10 -4 -10 -10z"/>
<path d="M1060 1309 c0 -52 24 -48 28 4 2 28 -1 37 -12 37 -12 0 -16 -11 -16
-41z"/>
<path d="M1278 1249 c-3 -98 3 -122 24 -101 12 12 0 202 -13 202 -4 0 -9 -45
-11 -101z"/>
<path d="M115 1223 c3 -65 10 -163 14 -218 5 -55 7 -146 6 -203 -2 -56 0 -100
5 -97 18 11 21 108 10 290 -7 105 -13 219 -15 255 -4 89 -4 90 -15 90 -7 0 -9
-39 -5 -117z"/>
<path d="M1409 1318 c-9 -30 -11 -321 -4 -453 2 -33 4 -115 4 -183 1 -84 4
-123 12 -120 7 2 10 61 9 183 -1 99 -3 269 -3 377 -1 109 -5 198 -9 198 -5 0
-8 -1 -9 -2z"/>
<path d="M550 1210 c0 -16 5 -30 10 -30 6 0 10 14 10 30 0 17 -4 30 -10 30 -5
0 -10 -13 -10 -30z"/>
<path d="M412 1135 c-2 -68 7 -91 23 -65 8 12 -6 140 -15 140 -4 0 -8 -34 -8
-75z"/>
<path d="M1502 1005 c0 -16 2 -22 5 -12 2 9 2 23 0 30 -3 6 -5 -1 -5 -18z"/>
<path d="M92 560 c0 -19 2 -27 5 -17 2 9 2 25 0 35 -3 9 -5 1 -5 -18z"/>
<path d="M187 536 c-6 -15 1 -26 15 -26 4 0 8 9 8 20 0 23 -15 27 -23 6z"/>
<path d="M1247 354 c-13 -13 3 -21 32 -16 17 2 28 8 25 13 -6 10 -48 12 -57 3z"/>
<path d="M0 335 c0 -16 36 -20 58 -6 11 7 10 10 -3 15 -29 11 -55 7 -55 -9z"/>
<path d="M1205 291 c-3 -5 -1 -12 3 -15 14 -9 112 6 106 15 -7 12 -101 11
-109 0z"/>
<path d="M1386 119 c-11 -54 -7 -99 8 -99 10 0 13 15 12 59 -1 68 -10 86 -20
40z"/>
<path d="M1179 130 c0 -3 -3 -31 -6 -63 -4 -47 -2 -57 11 -57 12 0 16 11 16
48 0 26 -5 54 -10 62 -5 8 -10 13 -11 10z"/>
<path d="M1091 84 c-1 -12 -4 -36 -7 -53 -5 -24 -3 -31 10 -31 18 0 20 35 6
80 -7 22 -8 23 -9 4z"/>
<path d="M1460 31 c0 -12 5 -21 10 -21 6 0 10 6 10 14 0 8 -4 18 -10 21 -5 3
-10 -3 -10 -14z"/>
</g>
</svg>
